# xmcd
#
# Track frame offsets:
#	182
#	26132
#	38957
#	52157
#	59357
#	78032
#	85232
#	101807
#	112157
#	140057
#	151307
#	162182
#	172607
#	191432
#	209957
#	226832
#	252707
#	260432
#	270107
#	276332
#	293432
#	299807
#	325832
#	333407
#
# Disc length: 4614 seconds
#
# Revision: 6
# Processed by: cddbd v1.5PL3 Copyright (c) Steve Scherf et al.
# Submitted via: audiograbber 1.81.02
#
DISCID=6b120418
DTITLE=The English Concert - Telemann Suiten
DYEAR=1992
DGENRE=Classical
TTITLE0=Suite in C - Dur TWV 55:C6 - (Grave) - Allegro
TTITLE1=Suite in C - Dur TWV 55:C6 - Harlequinade
TTITLE2=Suite in C - Dur TWV 55:C6 - Espagniol
TTITLE3=Suite in C - Dur TWV 55:C6 - Bouree en Trompette
TTITLE4=Suite in C - Dur TWV 55:C6 - Sommeille
TTITLE5=Suite in C - Dur TWV 55:C6 - Rondeau
TTITLE6=Suite in C - Dur TWV 55:C6 - Menuet I, II
TTITLE7=Suite in C - Dur TWV 55:C6 - Gigue
TTITLE8=Suite in D - Dur TWV 55:D19 - (ohne Tempobezeichnung)
TTITLE9=Suite in D - Dur TWV 55:D19 - Bouree
TTITLE10=Suite in D - Dur TWV 55:D19 - Loure
TTITLE11=Suite in D - Dur TWV 55:D19 - Rondeau (2)
TTITLE12=Suite in D - Dur TWV 55:D19 - Ecossoise
TTITLE13=Suite in D - Dur TWV 55:D19 - Minuet
TTITLE14=Suite in D - Dur TWV 55:D19 - Gigue (2)
TTITLE15=Suite in B - Dur TWV 55:B10 - Ouverture
TTITLE16=Suite in B - Dur TWV 55:B10 - Rondeau (2) (2)
TTITLE17=Suite in B - Dur TWV 55:B10 - Air un pui viste
TTITLE18=Suite in B - Dur TWV 55:B10 - Hornepipe
TTITLE19=Suite in B - Dur TWV 55:B10 - Menuet I, II (2)
TTITLE20=Suite in B - Dur TWV 55:B10 - Bouree (2)
TTITLE21=Suite in B - Dur TWV 55:B10 - Plainte
TTITLE22=Suite in B - Dur TWV 55:B10 - Combattans
TTITLE23=Suite in B - Dur TWV 55:B10 - Passepied I, II
EXTD=The english Concert, Peter Hanson on iriginal instruments\nRecording Londo
EXTD=n Henry Wood Hall 1992
EXTT0=
EXTT1=
EXTT2=
EXTT3=
EXTT4=
EXTT5=
EXTT6=
EXTT7=
EXTT8=
EXTT9=
EXTT10=
EXTT11=
EXTT12=
EXTT13=
EXTT14=
EXTT15=
EXTT16=
EXTT17=
EXTT18=
EXTT19=
EXTT20=
EXTT21=
EXTT22=
EXTT23=
PLAYORDER=
